PathFileType	4	(X/Y/Z)	RBDS019\RBDS019runT35.trc
DataRate	CameraRate	NumFrames	NumMarkers	Units	OrigDataRate	OrigDataStartFrame	OrigNumFrames
150.000000	150.000000	4	33	mm	150.000000	2250	4500
Frame#	Time	L.ASIS			L.Heel.Bottom			L.Heel.Lateral			L.Heel.Top			L.Iliac.Crest			L.MT1			L.MT5			L.PSIS			L.Shank.Bottom.Lateral			L.Shank.Bottom.Medial			L.Shank.Top.Lateral			L.Shank.Top.Medial			L.Thigh.Bottom.Lateral			L.Thigh.Bottom.Medial			L.Thigh.Top.Lateral			L.Thigh.Top.Medial			R.ASIS			R.ASY			R.Heel.Bottom			R.Heel.Lateral			R.Heel.Top			R.Iliac.Crest			R.MT1			R.MT5			R.PSIS			R.Shank.Bottom.Lateral			R.Shank.Bottom.Medial			R.Shank.Top.Lateral			R.Shank.Top.Medial			R.Thigh.Bottom.Lateral			R.Thigh.Bottom.Medial			R.Thigh.Top.Lateral			R.Thigh.Top.Medial			
		X1	Y1	Z1	X2	Y2	Z2	X3	Y3	Z3	X4	Y4	Z4	X5	Y5	Z5	X6	Y6	Z6	X7	Y7	Z7	X8	Y8	Z8	X9	Y9	Z9	X10	Y10	Z10	X11	Y11	Z11	X12	Y12	Z12	X13	Y13	Z13	X14	Y14	Z14	X15	Y15	Z15	X16	Y16	Z16	X17	Y17	Z17	X18	Y18	Z18	X19	Y19	Z19	X20	Y20	Z20	X21	Y21	Z21	X22	Y22	Z22	X23	Y23	Z23	X24	Y24	Z24	X25	Y25	Z25	X26	Y26	Z26	X27	Y27	Z27	X28	Y28	Z28	X29	Y29	Z29	X30	Y30	Z30	X31	Y31	Z31	X32	Y32	Z32	X33	Y33	Z33	

2251	15	2365.209545200383	925.1163135202775	937.5523461299671	1836.811881349597	576.2851257299961	1056.462044428923	1836.305546415254	560.7494945220265	1002.048452965843	1876.709907793502	553.5577186483004	1040.644879606353	2327.274810701148	989.5631774747645	898.5468105461819	1774.830885605972	379.0268966211676	1019.672141769758	1767.042074682853	448.1275152497891	937.4687269063448	2190.455388252047	957.393368259445	974.2701990381743	1934.402758540759	501.8694815228554	954.960693696331	1940.651328688094	529.2548476725	997.5360749112267	2012.671165211734	507.7937423039316	934.8507895995158	2023.016636744087	533.7592973699469	979.3905576867633	2243.797174293115	549.0680293224211	881.6205868718229	2190.378137532924	556.3607989339632	931.7147911228615	2246.521191583964	657.3952829752814	868.8665695276268	2195.229953935509	664.7342237595554	916.6406255183399	2322.659666332105	941.8253093857429	1158.645993652705	-22231934375.09136	14690861332.44707	-41338457774.30826	2325.26409062737	22.20750371283534	1066.643144397769	2352.431868103189	37.92034478838131	1106.697685113092	2333.255948118906	66.66915126652398	1066.483653312526	2262.546502176603	999.888573434959	1177.498951268954	2519.317476441906	57.78019037559591	1025.107303775704	2496.403387813599	39.20941636256253	1129.873099636412	2174.018478922078	960.6564480192326	1073.814970457827	2392.632904010645	144.3360096695491	1126.445945430791	2349.11128687589	149.5101337481491	1092.490896781988	2381.948747967483	221.6169235933452	1149.283467837579	2341.040585888602	226.5862937789963	1113.84056117996	2363.85988132143	559.155245235604	1183.319572477867	2309.191742941514	541.9181788055436	1140.993422872435	2317.327057774063	657.2435046772243	1203.908120756578	2262.974847025217	638.7725637861247	1166.739633421546	
2252	15.00666666666667	2363.781774960508	918.1333194404706	937.7123956896331	1853.259186577695	580.4894570234428	1055.139190366998	1853.345012201198	564.2688568206071	1001.072399739242	1893.012574548474	556.9551667119692	1040.369816215138	2326.627631387602	981.1997086225961	897.3102733860743	1788.769535199053	383.8022995607552	1019.826795320498	1783.334308863917	451.9829173590789	936.6530234613716	2188.379161045334	949.2926953193503	971.9920740398853	1950.650619749442	503.1007261921563	955.1092728126952	1957.776028370392	530.076301167681	997.8689060871845	2029.183373380404	506.2359915631387	935.0974925872314	2040.483053514302	531.5732340281613	979.7466449658384	2253.141403423932	540.7683073412051	881.2544433081918	2198.851472729817	546.1126001423022	930.5868613644873	2252.145569662285	649.1862809544801	868.3878940398439	2200.298706099516	654.6795278401956	915.6813017504586	2320.008717318873	936.6097328609787	1160.209167143755	-22268324959.80442	14714906623.55797	-41406120578.0869	2302.658905812889	23.67928884815413	1066.318084512235	2330.397140414684	38.71753087842039	1106.263492674116	2312.44569588391	67.99356839468756	1065.702166640246	2259.753682956558	991.9649819486116	1178.171441708996	2498.99020675689	52.10176194011245	1025.064093925846	2474.685712917564	35.07982296710188	1130.404086142432	2171.283997578963	954.0337817755196	1071.439712041677	2376.648626497852	142.1291090964324	1126.212604120493	2333.303718767441	149.6087148375588	1092.41345234226	2369.508922558709	219.6589376894036	1149.734836624374	2328.758920991403	226.7481374283205	1114.43794087735	2361.045298651867	555.1586221187143	1185.69485022092	2307.302422562956	537.6826760813708	1142.332524502222	2313.486327970137	652.9281404753229	1205.550753924412	2260.065442511424	634.168966929088	1167.28475582287	
2253	15.01333333333333	2362.034794461186	911.3054251534837	937.7758941862227	1869.598622302729	583.7063771386794	1052.616249925218	1870.350565225445	566.3616084343728	999.1038925833591	1909.288862110628	559.500227712458	1039.131653477351	2325.262409519592	972.9674751666538	895.87898325966	1803.698964140576	387.1957419954164	1020.446378760638	1800.219012583078	453.6082047607871	935.8572893774857	2186.106942734958	941.6995419848244	969.569227134581	1967.365076984296	503.4652730247646	954.8740253097645	1975.177218972851	530.1534856480712	997.777570667812	2046.110765664785	504.1288592729445	935.1008333515471	2058.182096630331	529.0092176207696	979.7966983159412	2263.116877168211	533.2268710477812	881.0317313214242	2207.757641188748	536.5576215224667	929.2365542953713	2258.305689829739	641.5984246385323	867.9172230684981	2205.724696044009	645.1814596562327	914.4236649289934	2317.211615443781	931.9790863723938	1161.71799863392	-22304755233.74529	14738978137.82711	-41473857175.27326	2279.725348950878	25.27712760406462	1066.079354528073	2307.947444679065	39.8381026156633	1105.890580649498	2290.916384233719	69.45121909403159	1065.062049020225	2256.75726017316	984.258747051475	1178.803668942611	2477.724808132244	48.04781273035906	1025.001357484501	2452.363581324778	32.25640134154145	1130.840549116344	2168.492910537086	948.1341267951229	1068.847081760461	2359.867467883603	140.7848272359362	1126.09567957717	2316.767583847807	150.5812011558886	1092.46195644658	2356.349686744845	218.4233057281334	1150.288592194636	2315.838237020639	227.6509959564214	1115.143538073349	2357.670260482955	551.5666650230463	1188.217540276488	2304.931965067855	533.9407856143785	1143.708672275187	2309.288648707736	649.1241959724646	1207.255044718924	2256.806433836229	630.1594162868836	1167.855266484693	
2254	15.02	2359.995379438652	904.8659780979966	937.7352971472865	1885.635639655622	585.8865263455934	1048.919188700889	1887.124610917676	567.0127314726242	996.1776763623365	1925.363945926762	561.1773518219443	1036.928447658188	2323.074393638058	965.155049219791	894.2782322473	1819.446703460915	389.1628163839399	1021.535363147141	1817.496956106146	452.9956416563738	935.1352459480975	2183.695517666942	934.8429896489234	967.1130752806705	1984.378813310451	502.9868502754675	954.2496085749837	1992.676522084286	529.5578342060126	997.2278353784174	2063.309517266761	501.5630613215528	934.8591832722541	2075.951661592328	526.2111952360129	979.5286746832538	2273.713866699862	526.6846038026181	880.9775309450371	2217.1550551675	527.9123900029915	927.7488555425267	2264.996819034552	634.8534522478725	867.4942819490384	2211.539207538401	636.4390966269679	912.9335647365815	2314.344669852097	928.0660575269288	1163.122664505903	-22341225218.5456	14763075889.54585	-41541667606.08515	2256.636224378141	26.8462957107762	1065.960094240224	2285.240689085933	41.11860107975171	1105.628450649061	2268.834963006239	70.89598542828911	1064.611680770724	2253.575131246909	977.098958631051	1179.330888961581	2455.702800930021	45.51461638881293	1024.997439040915	2429.609078404103	30.599093711747	1131.215860268373	2165.731323959405	943.1092903194647	1066.124846105018	2342.320624763599	140.1553394626757	1126.124837546166	2299.530507386622	152.2090592390228	1092.665797051588	2342.40869811724	217.7579970622296	1150.935903424766	2302.211832449948	229.0754157962472	1115.945927212439	2353.518026409663	548.3615147454381	1190.745937791856	2301.783228014229	530.7392664610074	1145.050924163922	2304.67001908122	645.8775154970203	1208.919525401277	2253.068806266182	626.8574126735284	1168.403145494504	
